#!OML:ASF E:\emotionWalksFemale\Project 1\Capture day 1\Session 1\Female1.ASF
:FULLY-SPECIFIED
:DEGREES
2354
root 9.06902 15.3117 10.8928 -1.156 5.18343 -3.50418
lowerback 9.42288 0.915684 2.09075
upperback 3.1864 1.42494 0.579942
thorax -1.9385 0.714852 -0.730924
lowerneck -6.35062 -3.06039 -5.00773
upperneck 47.2202 -5.12291 4.02983
head 19.6949 -2.3804 2.08432
rclavicle 2.73329e-016 3.37934e-015
rhumerus -34.6862 1.11062 -84.7136
rradius 30.2293
rwrist 18.4029
rhand -5.61204 -49.1297
rfingers 7.12502
rthumb 20.2053 -78.0989
lclavicle 2.73329e-016 3.37934e-015
lhumerus -31.3428 6.47178 84.2687
lradius 37.9049
lwrist -11.7016
lhand -1.45206 -29.7745
lfingers 7.12502
lthumb 24.1988 -1.2812
rfemur -3.60971 14.6692 35.7483
rtibia 22.3821
rfoot -20.0327 -22.2185
rtoes 18.22
lfemur -28.5084 -4.01711 -16.6861
ltibia 66.1515
lfoot -16.237 3.58096
ltoes -16.7449
2355
root 9.06864 15.3135 10.9467 -1.12267 5.1014 -3.48382
lowerback 10.2454 0.93116 2.05575
upperback 2.65162 1.4716 0.556809
thorax -2.94496 0.723355 -0.764249
lowerneck -5.8613 -3.07612 -5.07181
upperneck 47.5108 -5.15524 4.0121
head 19.7674 -2.41586 2.09602
rclavicle -3.23025e-015 3.77691e-015
rhumerus -35.5909 1.14628 -84.8282
rradius 30.3472
rwrist 18.4455
rhand -5.74204 -49.0915
rfingers 7.12502
rthumb 20.0803 -78.0738
lclavicle -3.23025e-015 3.77691e-015
lhumerus -32.1926 6.53543 84.0777
lradius 37.886
lwrist -11.9302
lhand -1.82442 -29.6511
lfingers 7.12502
lthumb 23.8418 -1.1107
rfemur -3.38698 14.3215 35.7917
rtibia 22.2818
rfoot -19.5988 -22.4571
rtoes 15.4848
lfemur -28.927 -4.36357 -16.6667
ltibia 65.241
lfoot -16.5993 3.61122
ltoes -13.5296
2356
root 9.06687 15.3123 11.0016 -1.17085 5.03198 -3.49838
lowerback 9.64386 0.909769 1.96556
upperback 3.13722 1.41295 0.617344
thorax -2.11555 0.706298 -0.62579
lowerneck -6.08618 -3.06873 -5.13082
upperneck 47.267 -5.13506 4.05704
head 19.6606 -2.40998 2.1223
rclavicle -4.91992e-015 -1.98785e-015
rhumerus -34.9653 1.07197 -84.8229
rradius 30.2796
rwrist 18.6146
rhand -5.92941 -48.7279
rfingers 7.12502
rthumb 19.9002 -77.729
lclavicle -4.91992e-015 -1.98785e-015
lhumerus -31.4005 7.09367 84.0104
lradius 37.2817
lwrist -12.1819
lhand -2.28269 -30.1398
lfingers 7.12502
lthumb 23.4022 -1.54275
rfemur -3.1301 13.7012 35.9127
rtibia 22.2286
rfoot -18.6309 -22.8252
rtoes 9.62498
lfemur -29.2706 -4.68975 -16.6307
ltibia 64.2881
lfoot -17.2526 3.98828
ltoes -16.6934
2357
root 9.06839 15.305 11.0537 -1.12867 4.99785 -3.49064
lowerback 10.3223 0.854312 1.90862
upperback 2.7337 1.35958 0.684167
thorax -2.9119 0.669227 -0.536277
lowerneck -5.89642 -2.99425 -4.96161
upperneck 47.5192 -4.89498 3.64417
head 19.7351 -2.33811 1.93326
rclavicle -9.06955e-015 2.98177e-015
rhumerus -35.6313 1.38104 -84.868
rradius 30.3643
rwrist 18.5475
rhand -5.7872 -48.5871
rfingers 7.12502
rthumb 20.0369 -77.574
lclavicle -9.06955e-015 2.98177e-015
lhumerus -31.9852 7.42056 83.847
lradius 36.8206
lwrist -12.3566
lhand -2.91237 -30.9913
lfingers 7.12502
lthumb 22.7981 -2.31858
rfemur -2.87567 13.4632 35.9299
rtibia 22.0914
rfoot -18.7299 -22.7553
rtoes 7.07474
lfemur -29.6643 -5.02781 -16.649
ltibia 63.3015
lfoot -18.0097 4.87899
ltoes -22.1938
2358
root 9.07593 15.3039 11.102 -0.914069 5.00208 -3.31196
lowerback 9.74776 0.805287 1.87175
upperback 3.0009 1.27104 0.647867
thorax -2.3203 0.632661 -0.529126
lowerneck -6.12602 -2.93874 -4.86882
upperneck 47.4118 -4.71456 3.41484
head 19.693 -2.27407 1.82579
rclavicle -6.95746e-015 -1.09332e-014
rhumerus -35.0719 1.7457 -84.9729
rradius 30.1693
rwrist 18.3134
rhand -5.64614 -48.7867
rfingers 7.12502
rthumb 20.1725 -77.7593
lclavicle -6.95746e-015 -1.09332e-014
lhumerus -31.5668 7.6096 83.9162
lradius 36.4597
lwrist -12.217
lhand -3.83454 -31.3566
lfingers 7.12502
lthumb 21.9128 -2.5776
rfemur -2.74974 13.4964 35.6319
rtibia 21.944
rfoot -19.7168 -22.1753
rtoes 9.78452
lfemur -30.1662 -5.46921 -16.8511
ltibia 62.2317
lfoot -18.16 5.16165
ltoes -21.0093
2359
root 9.07494 15.3001 11.1628 -0.993706 4.81479 -3.49969
lowerback 9.7997 0.840246 2.01119
upperback 3.02036 1.33476 0.751705
thorax -2.32649 0.664107 -0.508101
lowerneck -6.12465 -2.92514 -5.05553
upperneck 47.5777 -4.66155 3.44245
head 19.8185 -2.28426 1.88794
rclavicle 2.70844e-014 2.04748e-014
rhumerus -35.1025 1.92194 -85.0113
rradius 30.0399
rwrist 18.3142
rhand -5.68502 -49.1075
rfingers 7.12502
rthumb 20.1351 -78.084
lclavicle 2.70844e-014 2.04748e-014
lhumerus -31.7463 7.60879 83.9903
lradius 36.3249
lwrist -11.7353
lhand -4.32134 -31.1227
lfingers 7.12502
lthumb 21.4454 -2.28965
rfemur -2.29048 13.758 35.9164
rtibia 21.72
rfoot -20.182 -22.002
rtoes 11.5984
lfemur -30.3473 -5.70366 -16.5806
ltibia 61.1662
lfoot -18.0193 5.08623
ltoes -18.6351
